/* XPM */
static char * door_xpm[] = {
"16 16 79 1",
" 	c #785551",
".	c #55464C",
"+	c #8A605B",
"@	c #785754",
"#	c #795958",
"$	c #8A6361",
"%	c #584B53",
"&	c #7F7989",
"*	c #8793AC",
"=	c #8A615E",
"-	c #785755",
";	c #8893AC",
">	c #8491AA",
",	c #798399",
"'	c #96A1B8",
")	c #8591AA",
"!	c #887D8C",
"~	c #6D778E",
"{	c #949FB6",
"]	c #62708B",
"^	c #7282A1",
"/	c #768196",
"(	c #71809F",
"_	c #5E6B86",
":	c #6E7D9C",
"<	c #5E6C87",
"[	c #71809E",
"}	c #5C576A",
"|	c #616077",
"1	c #656076",
"2	c #513336",
"3	c #5A3637",
"4	c #54617A",
"5	c #626F8A",
"6	c #626E88",
"7	c #65403F",
"8	c #5E3734",
"9	c #6B3A35",
"0	c #653732",
"a	c #6C3A35",
"b	c #5C312D",
"c	c #643A39",
"d	c #6E7A90",
"e	c #8B97B0",
"f	c #8B96AE",
"g	c #939293",
"h	c #897D7D",
"i	c #6C3B36",
"j	c #663732",
"k	c #6E4241",
"l	c #8A94AD",
"m	c #5C6A86",
"n	c #6F7F9F",
"o	c #6F7D9C",
"p	c #704746",
"q	c #683D38",
"r	c #6E403B",
"s	c #704440",
"t	c #663833",
"u	c #6F4444",
"v	c #6D3E3D",
"w	c #908281",
"x	c #A9A7A7",
"y	c #69413D",
"z	c #8D7F7F",
"A	c #806766",
"B	c #6A423E",
"C	c #908383",
"D	c #6D403F",
"E	c #7F6768",
"F	c #6E4442",
"G	c #683C38",
"H	c #707D9D",
"I	c #87524F",
"J	c #77443F",
"K	c #844841",
"L	c #753F39",
"M	c #854C49",
"N	c #707D9C",
"    ...     ... ",
"    +.@##@  +.  ",
"   @$%&**&##=.  ",
"-##&;>,'',)*!%#-",
"~*),'{]^^]{',>*~",
"/'{]^(_::_(^]{'/",
"<^[}|123321|}[^<",
"4567890aa09bc654",
"defghijiijijkled",
"mnopqijrstituonm",
"456vjijwxyiyz654",
"delkjijAwqiBCled",
"mnoDjijiijiqEonm",
"456FGijiijijv654",
"defghijiijijkled",
"mnHIJKLKKLKLMNnm"};
