/* XPM */
static char *wall_0[] = {
/* columns rows colors chars-per-pixel */
"16 16 10 1 ",
"  c black",
". c #5D4744",
"X c #55464C",
"o c #785551",
"O c #F44336",
"+ c #8B605B",
"@ c #947062",
"# c #FF9800",
"$ c #FFEB3B",
"% c #A68679",
/* pixels */
"X@@@ @XXX  @@@XX",
"@@@  @%X@@  @@%X",
"@@ ## %X@@   @%X",
"@  ##  X@ $$O %X",
"  ####  @ $$$$ X",
" ###### @ $$   X",
" #  ####  $$ %.X",
" # ## ###$$ .. X",
"X  #  ###$$$  XX",
"o ## ###$  $ o+X",
"ooo  # #$$$ oo+X",
"ooo o# #$$$$ o+X",
"oooooo   $$$ o+X",
"oooo      $$$ +X",
".++     .     .X",
"X.....XXX.....XX"
};
