/* XPM */
static char *wall_1[] = {
/* columns rows colors chars-per-pixel */
"16 16 15 1 ",
"  c gray13",
". c gray26",
"X c #5D4744",
"o c #55464C",
"O c #785551",
"+ c gray46",
"@ c #872507",
"# c #8B605B",
"$ c #947062",
"% c #A68679",
"& c #A1887F",
"* c gray62",
"= c gray74",
"- c #FFCCBC",
"; c #EEEEEE",
/* pixels */
"o$$$$$ooo$$$$$oo",
"$$$$$$%o$$$$$$%o",
"$$$$$$%o$$$$$$%o",
"$$$$$$   $$$$$%o",
".$.$. *** $$$$%o",
".....     $$$%%o",
".==;. -----%%%Xo",
".===.-  -  - Xoo",
".....@-----@@Ooo",
"O..@@@@@@@@@...o",
"O.. @@+@@@+.==;.",
"O  -  ++++..===.",
"O - O &&&&&..=..",
"O  OO ++ +++...o",
"X### +++ +++ #Xo",
"oXX     o     oo"
};
