/* XPM */
static char *wall_2[] = {
/* columns rows colors chars-per-pixel */
"16 16 17 1 ",
"  c black",
". c #3E2723",
"X c #004D40",
"o c #5D4744",
"O c #55464C",
"+ c #6D4C41",
"@ c #785551",
"# c #DD2C00",
"$ c #8B605B",
"% c #947062",
"& c #F9A825",
"* c #FDD835",
"= c #A68679",
"- c #FF8A65",
"; c #FFCCBC",
": c #C8E6C9",
"> c #F0F4C3",
/* pixels */
"O% %%.....% %%OO",
"%%  . .. .  %%=O",
"%% ;  ;.. ; %%=O",
"%% ; ; ; ; %%%=O",
"%%%  - ; - %%%=O",
"%%%. ;;;;; .%==O",
"o=..      =..=oO",
"Oo.oo XXX**o.oOO",
"O@.@ X   * *@@OO",
"@@@   #>>*; *#$O",
"@@  X ;##*##*&#O",
"@  X  #; *;* #$O",
"@ XX    :** @@$O",
"  X   : :: @@$$O",
" X  $ +  +  $$oO",
" X oo ++ ++ ooOO"
};
