/* XPM */
static char *halfling[] = {
/* columns rows colors chars-per-pixel */
"16 16 13 1 ",
"  c gray13",
". c #3E2723",
"X c #4E342E",
"o c #5D4744",
"O c #55464C",
"+ c #785551",
"@ c gray46",
"# c #8B605B",
"$ c #947062",
"% c #4CAF50",
"& c #A68679",
"* c #A1887F",
"= c gray74",
/* pixels */
"O$$$$$OOO$$$$$OO",
"$$$$$$&O$$$$$$&O",
"$$$$$$&O$$$$@@&O",
"$$$$$  O$$$$@=@O",
"$$$$ %% $$$@==@O",
"$   %%%%   @=@&O",
"o&  % %   &@=@oO",
"Ooo %%%% o@=@@OO",
"O+++    O+@=@+OO",
"+++  .%%  @@@+#O",
"+   %...%%  ++#O",
"+ %  ...    ++#O",
"+  + %%% @@+++#O",
"++++XX%XX++++##O",
"o##X*X X*X####oO",
"OooXXXOXXXooooOO"
};
