/* XPM */
static char *wall_6[] = {
/* columns rows colors chars-per-pixel */
"16 16 14 1 ",
"  c black",
". c gray13",
"X c gray26",
"o c #5D4744",
"O c #55464C",
"+ c #785551",
"@ c gray38",
"# c #8B605B",
"$ c #8D6E63",
"% c #947062",
"& c #A68679",
"* c #81C784",
"= c #FFE0B2",
"- c #FFECB3",
/* pixels */
"O%%%     %%%%%OO",
"%%%  ***  %.%%..",
"%%= * * * =...@.",
"%%===***===..@@.",
"%%% ==*==*%..@.O",
"%%%       %..@.O",
"o&&&  ** &&..@@.",
"Oo  ***** o...@.",
"O  ******* . +..",
"+ ******* ** +#O",
"  ** $$$$    +#O",
" ** $$$$$$ X.+#O",
"    $$$$*$ X++#O",
"+  $$***$$  +##O",
"  ***   ***  #oO",
" -*-* O *-*- oOO"
};
