/* XPM */
static char *pathfinder[] = {
/* columns rows colors chars-per-pixel */
"16 16 9 1 ",
"  c black",
". c #5D4744",
"X c #55464C",
"o c #785551",
"O c #F44336",
"+ c #8B605B",
"@ c #947062",
"# c #A68679",
"$ c white",
/* pixels */
"X@@@@@XXX@@@@@XX",
"@@@@@@#      @#X",
"@@@@@@  $$$$  #X",
"@@@@@  $ $$ $ #X",
"@@@@@ $$ $$ $  X",
"@@@@@ $$$OO$$$ X",
".### $$$OOOO$$ X",
"X... $  $$$$  $X",
"Xooo $$   $$$$ X",
"oooo $ $$ $  $  ",
"o oo $  $ $$ $$ ",
" $ o $$   $$$   ",
" $$$$$$$$$$$$$+X",
" $$$$$$$$$$$$ +X",
".  $$$$$$$$$  .X",
"X.           .XX"
};
