/* XPM */
static char * pc_xpm[] = {
"16 16 12 1",
" 	c #55464C",
".	c #947062",
"+	c #060608",
"@	c #AC3232",
"#	c #A68679",
"$	c #847E87",
"%	c #9BADB7",
"&	c #FFFFFF",
"*	c #5D4744",
"=	c #785551",
"-	c #DF7126",
";	c #8B605B",
" ....+++ .....  ",
".....+@@+.....# ",
"......+$++++..# ",
".....+$$%%%%+.# ",
"....+$%%%%%%+.# ",
"....+%%&&&&&+## ",
"*###+%%&+++++#* ",
" ***+$%&&&+&+*  ",
" ===++$$@@-@+=  ",
"=====+@@$$$$+=; ",
"====@+$$%%%%+=; ",
"===@@+$$+++$+=; ",
"===@@+$+@+$+==; ",
"=====++ =++==;; ",
"*;;;;;* *;;;;;* ",
" *****   *****  "};
