/* XPM */
static char *potion[] = {
/* columns rows colors chars-per-pixel */
"16 16 11 1 ",
"  c black",
". c #5D4744",
"X c #55464C",
"o c #785551",
"O c #8B605B",
"+ c #947062",
"@ c #388E3C",
"# c #FBC02D",
"$ c #A68679",
"% c #81C784",
"& c #FFF8E1",
/* pixels */
"X+++++###+++++XX",
"++++++###+++++$X",
"++++++ # +++++$X",
"+++++ & & ++++$X",
"+++++ &&& ++++$X",
"+++++ &&& +++$$X",
".$$$$ @&@ $$$$.X",
"X.... @@@ ....XX",
"Xoo  @@@%@  ooXX",
"oo  @@@@@%@  oOX",
"oo @@@@@@%@@ oOX",
"oo @@@@@@%@@ oOX",
"oo @@@@@@%@@ oOX",
"oo  @@@@@@@  OOX",
".OO   @@@   OO.X",
"X....     ....XX"
};
